<svg version="1.1" id="Layer_1" xmlns:x="ns_extend;" xmlns:i="ns_ai;" xmlns:graph="ns_graphs;" xmlns="http://www.w3.org/2000/svg" xmlns:xlink="http://www.w3.org/1999/xlink" x="0px" y="0px" viewBox="0 0 703.3 175" style="enable-background:new 0 0 703.3 175;" xml:space="preserve">
 <style type="text/css">
  .st0{fill:#FFFFFF;}
	.st1{fill:#FBA919;}
	.st2{opacity:0.1;}
	.st3{fill:#414042;}
 </style>
 <metadata>
  <sfw xmlns="ns_sfw;">
   <slices>
   </slices>
   <sliceSourceBounds bottomLeftOrigin="true" height="175" width="703.3" x="-415.9" y="-222">
   </sliceSourceBounds>
  </sfw>
 </metadata>
 <g>
  <path class="st0" d="M143.5,175h-113C13.7,175,0,161.2,0,144.3V30.7C0,13.8,13.7,0,30.5,0h113C160.3,0,174,13.8,174,30.7v113.6
		C174,161.2,160.2,175,143.5,175z">
  </path>
  <path class="st1" d="M151.7,97.1c-0.3-4.8-2.6-10.6-15.7-6.8c-6.8,1.9-13,2-15.7-0.6c-0.3-0.4-0.6-0.9-0.9-1.3
		c-1.1-2-0.5-5.2,2-9.5c1.8-3.1,3.9-3.9,6.4-3.9c2.1,0,4.5,0.4,7.4,0.4c9.1-0.2,12.7-6,12.2-11.2c-0.1-1.6-2.2-1.1-6.2-2
		c-3.9-1-7.1-0.4-8-6.1c-0.2-1.6-2.3-5.1-7.1-5.9c-3.2-0.5-10-3.7-15.1,0.3l-4.5-1.9c-3-0.7-2.8,1.3-5.5,2.4
		c-2.6,0.9-7.4-1.5-6.1,1.8c1.1,2.7,5.4,6.2,10.7,4.5c-3.2,15.9-18.4,19.6-31.1,19c-16.9-0.6-30-15-29.4-31.9c0.2-4.9-1.4-6.3-3-3.7
		c-0.4,0.7-1,1.9-1.3,3.4c-0.1,0.5-0.3,1.1-0.4,1.6c-1.4,7.1,0.3,21.2,12,30.4c0,0-3.9,3.2-5.2,9.2c-0.7,3.4-0.4,6.2-0.2,7.6
		c0.1,0.6,0.2,1.1,0.2,1.1c1.1,5.2-8.6,8.8-12.9,9.5c-0.3,0-0.6,0.1-1,0.1c-0.6,0-1.2,0-1.7,0c-0.7,0-1.4-0.1-1.9-0.2
		c-2.6-0.2-4.4,0.2-6.1,6.5c-2.3,9-9,7-10.6,9.5c-2.6,4.1,1.3,7.1,6.1,7.4c2.9,0.1,6.2-0.6,8.6-2.9c8.3-7.5,4.4-10.9,12.6-10.3
		c1.1,0.1,2.3,0.2,3.8,0.4c9.1,1.2,15.6,3.1,24.6-6.6c0,0,0.7-1.2,1.8-2c0.4-0.4,1-0.7,1.6-1c0.2-0.2,1.4-0.1,1.6-0.1
		c3.5,0.9,11.3,5.1,20.1,3.6c3.5-1.3,6.7-3.3,9.3-5.9c0,0,1.4-1.3,2.3-0.1c1.2,1.3,2.3,3.5,3.7,5c3.2,3.4,3.2,2,9.9-0.7
		c0.6-0.3,1.4-0.5,2.2-0.9c17.4-6.4,17-8.5,20.5-1.5c0.6,1.3,2.9,1.4,5,0.5C149.6,103.2,151.9,100.8,151.7,97.1z">
  </path>
  <g class="st2">
   <path class="st3" d="M97.3,100.3c-4.5,9.2-20.6,3.3-21,1.4c0.1-1.4,1.2-4.5,0.1-3.4c-1,1.1-4.4,5.1-5.6,6.7c0.4-0.4,1-0.7,1.6-1
			c0.2-0.2,1.4-0.1,1.6-0.1c3.5,0.9,11.3,5.1,20.1,3.6c3.5-1.3,6.7-3.3,9.3-5.9c0,0,1.4-1.3,2.3-0.1c0,0-3.7-6.2-5.2-8.8
			C99.6,91.5,99.5,95.9,97.3,100.3z">
   </path>
  </g>
  <g class="st2">
   <path class="st3" d="M118.9,71.9c-1.5-2.9-8.7-0.9-5.4,1.6c8.6,6.3,0.1,6.5,5.9,15c-1.1-2-0.5-5.2,2-9.5c1.8-3.1,3.9-3.9,6.4-3.9
			C127.8,75,120.4,74.8,118.9,71.9z">
   </path>
  </g>
  <path class="st0" d="M581.3,11.3c8.7,0,17.3,0,26.1,0c0,19.1,0,38.2,0,57.7c1.5-2,2.6-3.9,3.9-5.5c5.2-6.1,12-9.5,19.9-10.9
		c8.9-1.6,17.8-1.1,26.2,2.5c10.6,4.4,17.1,12.6,20.5,23.4c2,6.2,2.6,12.7,2.7,19.1c0,12.1,0,24.2,0.1,36.3c0,1.7,0.3,3.5,0.7,5.2
		c0.7,2.8,2.6,4.2,5.4,4.3c1.6,0.1,3.2,0,5,0c0,0.4,0.1,0.9,0.1,1.4c0,6.3,0,12.7,0,19c0,0.6-0.4,1.7-0.9,1.7
		c-8.7,1.7-17.3,2.2-25.4-2.2c-6.4-3.5-9.3-9.6-10.4-16.6c-0.5-3-0.7-6.1-0.7-9.2c-0.1-12.3,0-24.6,0-36.9c0-4.5-0.6-8.9-2.4-13.1
		c-3.6-8.2-11.8-12.9-21.2-12.2c-13.4,1.1-22.8,10.6-23,24.2c-0.2,21.1-0.1,42.3-0.1,63.3c0,0.9,0,1.6,0,2.6c-8.7,0-17.3,0-26.1,0
		C581.3,114.2,581.3,62.9,581.3,11.3z">
  </path>
  <path class="st0" d="M387.1,93.6c-4.3-18.5-14.9-31.9-32.7-38.9c-11.3-4.4-23-4.8-34.7-2.2c-18.2,4-31.6,14.2-39,31.6
		c-6.2,14.2-6.7,29.1-3,44c3.2,12.9,10.2,23.5,21.6,30.7c18.5,11.7,38.4,12.6,58.7,5.8c9-3,16.5-8.9,23.2-15.9
		c-5.3-5.2-10.5-10.4-15.6-15.2c-3.4,2.6-6.5,5.5-10.1,7.5c-9.9,5.9-20.6,6.3-31.6,3.5c-8.5-2.1-15-7.1-18.9-15.1
		c-1.9-3.9-3-8-3.1-12.7c28.9,0,57.7,0,86.3,0C389,109.2,388.9,101.5,387.1,93.6z M361.6,97.9c-19.8,0-39.4,0-59,0
		c0-3.6,1.3-6.8,3.1-9.7c5.3-8.3,13.2-12.6,22.7-14.1c8.2-1.3,15.8,0.2,22.7,4.9c6.2,4.3,10,10.1,10.5,17.8
		C361.6,97,361.6,97.3,361.6,97.9z">
  </path>
  <path class="st0" d="M568.5,69.7c-0.5,0.5-0.9,1-1.3,1.4c-5,5.2-10,10.4-15,15.6c-15.9-17.2-42.1-14.8-54.4-0.4
		c-11.2,13.2-10.6,35.6,1.6,48.3c12.3,12.9,37.2,14.4,52.7-2.1c5.4,5.7,10.9,11.3,16.3,17c-8.6,9.3-18.8,15.6-31.2,18
		c-18.5,3.5-35.7,0.4-51.1-11.1c-13.3-10.1-20.7-23.6-22.4-40.3c-1.7-16.6,2.4-31.4,13.1-44.3c8.9-10.8,20.5-17.4,34.2-20.1
		c14.4-2.8,28.3-1.4,41.4,5.6C558.5,60.4,563.7,64.7,568.5,69.7z">
  </path>
  <path class="st0" d="M454.7,144c0,7.8,0,15.6,0,23.7c-2.3,0.3-4.7,0.7-7.1,1c-7.3,0.5-14.7,0.4-21.7-1.8
		c-10.9-3.5-16.9-11.4-19.1-22.4c-1-4.8-1.4-9.7-1.4-14.7c-0.2-16.4-0.1-32.7-0.1-49.1c0-0.7,0-1.5,0-2.5c-4.7,0-9.2,0-13.7,0
		c0-8.1,0-16,0-24.2c4.6,0,9,0,13.7,0c0-14.3,0-28.5,0-42.7c8.9,0,17.6,0,26.5,0c0,14.1,0,28.2,0,42.6c8.3,0,16.3,0,24.5,0
		c0,8.1,0,16,0,24.2c-8.1,0-16.1,0-24.3,0c0,0.7-0.1,1.2-0.1,1.7c0,16.8,0,33.5,0.1,50.3c0,1.9,0.3,3.9,0.7,5.8
		c1.3,5.5,5.1,8.6,10.7,8.8c1.9,0.1,3.7,0.1,5.6,0C450.9,144.5,452.7,144.2,454.7,144z">
  </path>
  <path class="st0" d="M227.9,133.8c0,1.7-0.3,3.5-0.7,5.2c-0.7,2.8-2.6,4.2-5.4,4.3c-1.6,0.1-3.2,0-5,0c0,0.4-0.1,0.9-0.1,1.4
		c0,6.3,0,12.7,0,19c0,0.6,0.4,1.7,0.9,1.7c8.7,1.7,17.3,2.2,25.4-2.2c6.4-3.5,9.3-9.6,10.4-16.6c0.5-3,0.9-9.4,0.9-9.4
		c0-29.2,0-29.8,0-59c7,0,13.9,0,20.7,0c0-8.1,0-16,0-24.2c-3.6,0-17.3,0-20.7,0c0-3.5-0.2-6.8,0-10.1c0.7-9.3,4.8-13.1,14-13.1
		c3.5,0,6.9,0.3,10.5,0.5c0-7.4,0-14.8,0-22.2c-0.3-0.1-0.5-0.1-0.7-0.2c-7.8-1.1-15.5-1.2-23.2,0.1c-11.5,1.9-19.9,8.1-24.3,19.3
		c-2.2,5.7-2.8,11.6-2.8,17.6c0,2.7,0,5.2,0,8.1c-6.2,0-12,0-18,0c0,8.1,0,16,0,24.2c6.1,0,11.9,0,18.1,0
		C227.9,107.5,227.9,133.8,227.9,133.8z">
  </path>
  <path class="st0" d="M703.3,64.5c0,4-3.2,7.2-7.2,7.2c-4,0-7.2-3.1-7.2-7.2s3.2-7.1,7.3-7.1C700.1,57.4,703.3,60.5,703.3,64.5z
		 M690.6,64.5c0,3.1,2.3,5.7,5.5,5.7c3.1,0,5.3-2.5,5.3-5.6c0-3.1-2.3-5.7-5.4-5.7C693,58.8,690.6,61.4,690.6,64.5z M694.9,68.2
		h-1.6v-7.1c0.6-0.1,1.6-0.2,2.7-0.2c1.4,0,1.9,0.2,2.4,0.5c0.4,0.3,0.7,0.9,0.7,1.5c0,0.9-0.6,1.4-1.5,1.7v0.1
		c0.6,0.2,1.1,0.7,1.3,1.7c0.2,1.1,0.4,1.5,0.5,1.7h-1.7c-0.2-0.2-0.3-0.9-0.5-1.7c-0.1-0.7-0.5-1.1-1.5-1.1H695v2.8H694.9z
		 M695,64.2h0.7c0.9,0,1.6-0.3,1.6-1.1c0-0.6-0.4-1.1-1.5-1.1c-0.4,0-0.7,0-0.9,0.1V64.2z">
  </path>
 </g>
</svg>